<svg width="1863" height="895" viewBox="0 0 1863 895" fill="none" xmlns="http://www.w3.org/2000/svg">
<g clip-path="url(#clip0_53_5)">
<path d="M307.538 63.9107C338.257 100.586 357.226 151.293 364.506 216.096C371.787 280.9 367.7 358.46 352.372 448.776C341.259 510.135 325.931 567.922 306.26 622.01C286.59 676.162 264.62 723.488 240.35 763.927C216.017 804.429 189.96 836.384 162.242 859.792C134.46 883.264 107.381 894.937 80.9403 894.937C42.5567 894.937 11.7732 870.89 -11.2187 822.671C-34.2744 774.515 -46.6644 709.074 -48.3249 626.411C-80.769 643.441 -114.235 657.537 -148.85 668.635C-183.402 679.734 -216.932 685.283 -249.376 685.283C-281.82 685.283 -306.983 672.526 -322.311 646.949C-339.363 617.099 -341.535 574.683 -328.698 519.703C-315.924 464.722 -290.314 404.83 -251.867 340.09C-223.702 293.21 -191.896 249.136 -156.45 207.741C-121.069 166.41 -84.9841 130.372 -48.261 99.6929C-11.6018 69.0133 24.291 44.7121 59.2897 26.7891C94.2884 8.86617 125.838 -0.0634155 154.067 -0.0634155C220.616 -0.0634155 271.836 21.24 307.729 63.8469L307.538 63.9107ZM343.367 446.225C358.758 357.567 362.974 281.474 356.14 218.01C349.306 154.482 330.913 105.306 301.087 70.3528C266.919 29.4042 217.87 8.99374 153.876 8.99374C126.541 8.99374 95.6295 17.732 61.0141 35.2085C26.4624 52.6849 -8.79172 76.7948 -44.6207 107.474C-80.4496 138.154 -115.895 173.936 -150.894 214.885C-185.893 255.833 -217.059 299.269 -244.33 345.32C-281.948 408.402 -307.047 466.571 -319.884 519.83C-332.657 573.089 -330.997 613.782 -314.775 641.91C-302.002 664.936 -280.223 676.417 -249.504 676.417C-218.784 676.417 -188.447 671.314 -156.067 661.045C-123.623 650.84 -92.0733 638.211 -61.2898 623.35C-30.5701 608.424 -1.31937 592.032 26.3986 574.109C54.1165 556.186 78.705 539.603 100.036 524.231C121.368 508.859 144.806 491 170.417 470.526L175.526 476.904C152.47 496.549 131.139 513.324 111.532 527.42C91.8615 541.516 69.0612 557.015 43.0676 574.109C17.0102 591.139 -10.5161 607.34 -39.5114 622.712C-39.5114 661.938 -36.5097 697.72 -30.5701 730.122C-24.6306 762.524 -16.2641 790.205 -5.59842 813.231C5.06726 836.256 17.6489 854.179 32.1465 866.936C46.6442 879.692 62.8661 886.134 80.8126 886.134C106.423 886.134 132.416 874.654 158.921 851.628C185.362 828.602 210.525 797.285 234.475 757.676C258.361 718.067 279.884 671.378 299.107 617.673C318.331 563.968 333.02 506.882 343.303 446.352L343.367 446.225ZM-10.0052 447.5C-5.72614 410.889 1.29913 376.765 11.1345 345.193C20.9699 313.684 30.9969 286.194 41.2155 262.722C51.4341 239.313 64.2712 213.928 79.5991 186.629L87.2631 191.731C71.8713 218.201 59.0981 242.885 48.8795 265.911C38.6609 288.936 28.8255 315.98 19.4372 347.106C10.0488 378.232 3.21512 411.654 -1.0639 447.5H-10.0052Z" fill="#DAB128" fill-opacity="0.5"/>
<path d="M648.903 336.327C642.325 373.065 625.336 409.868 597.746 446.926C570.156 483.92 530.048 524.358 477.23 568.177C515.742 578.829 545.12 596.305 565.302 620.543C583.632 642.484 590.465 666.147 585.739 691.597C582.163 710.54 573.158 728.336 558.596 744.855C544.098 761.439 525.386 775.79 502.585 787.909C479.785 800.027 454.111 809.659 425.627 816.802C397.142 823.882 367.189 827.454 335.831 827.454C294.956 827.454 258.936 822.096 227.769 811.445C196.666 800.793 172.78 785.421 156.175 765.266C136.632 742.75 129.479 715.834 134.844 684.453C147.872 611.039 196.219 534.946 279.82 456.174C248.973 443.737 226.172 427.472 211.355 407.317C196.538 387.225 191.174 365.284 195.325 341.621C198.902 322.677 207.907 304.945 222.468 288.362C236.966 271.778 255.679 257.427 278.479 245.309C301.279 233.19 327.081 223.559 355.821 216.415C384.561 209.335 414.386 205.763 445.17 205.763C489.621 205.763 527.749 210.675 559.426 220.433C591.104 230.192 614.671 244.288 630.126 262.657C647.306 282.175 653.565 306.795 648.839 336.39L648.903 336.327ZM470.141 566.327C523.47 522.509 564.089 482.134 591.998 445.076C619.844 408.082 636.768 371.535 642.644 335.37C647.37 307.561 641.75 284.471 625.783 266.102C610.966 248.37 588.102 234.848 557.319 225.727C526.471 216.543 489.11 211.95 445.234 211.95C415.025 211.95 385.774 215.394 357.609 222.155C329.444 228.98 304.409 238.292 282.502 250.156C260.532 262.02 242.331 275.924 227.833 291.87C213.335 307.879 204.586 324.718 201.584 342.514C197.433 365.029 202.606 385.886 217.167 405.148C231.665 424.411 254.082 439.91 284.291 451.773C310.412 428.11 337.491 405.914 365.656 385.184C393.821 364.455 423.583 346.085 455.005 330.14L457.687 335.497C426.265 351.507 393.246 372.236 358.567 397.686C323.888 423.135 291.444 451.391 261.171 482.517C230.962 513.579 204.841 546.618 182.935 581.571C160.965 616.524 147.042 651.414 141.166 686.366C135.802 714.814 142.38 739.944 160.71 761.822C176.74 780.765 199.987 795.435 230.515 805.768C261.043 816.164 296.17 821.331 335.895 821.331C366.167 821.331 395.354 817.95 423.519 811.126C451.684 804.301 476.72 794.989 498.69 783.125C520.596 771.261 538.861 757.357 553.359 741.411C567.857 725.401 576.606 708.563 579.544 690.768C583.695 667.678 577.437 645.482 560.895 624.178C544.29 605.235 520.149 589.991 488.407 578.446C456.666 566.901 421.539 561.097 383.028 561.097C364.06 561.097 345.219 562.564 326.57 565.562C307.857 568.56 289.975 572.642 272.731 578L270.943 571.749C306.516 561.097 343.878 555.739 383.028 555.739C414.45 555.739 443.509 559.311 470.205 566.391L470.141 566.327Z" fill="#DAB128" fill-opacity="0.5"/>
</g>
<defs>
<clipPath id="clip0_53_5">
<rect width="2200" height="895" fill="white" transform="translate(-337)"/>
</clipPath>
</defs>
</svg>
