<svg width="157" height="77" viewBox="0 0 157 77" fill="none" xmlns="http://www.w3.org/2000/svg">
<g clip-path="url(#clip0_7_3)">
<path d="M47.2378 6.28796C49.4914 9.3865 50.8779 13.6768 51.4105 19.1538C51.943 24.6307 51.6437 31.193 50.5213 38.8303C49.707 44.0182 48.5802 48.9018 47.1453 53.4812C45.706 58.0605 44.095 62.0618 42.3124 65.4849C40.5297 68.908 38.6195 71.611 36.5903 73.5938C34.5568 75.5767 32.5673 76.5656 30.6306 76.5656C27.8136 76.5656 25.5644 74.532 23.8742 70.4547C22.1884 66.3825 21.2772 60.8497 21.154 53.8615C18.7771 55.3018 16.3211 56.4935 13.7857 57.4266C11.2504 58.3648 8.79435 58.8314 6.41749 58.8314C4.04064 58.8314 2.19638 57.7512 1.06957 55.5908C-0.180478 53.0704 -0.338935 49.48 0.598602 44.8347C1.53614 40.1843 3.41121 35.1232 6.22822 29.6462C8.29257 25.6805 10.621 21.9531 13.2179 18.4539C15.8105 14.9598 18.4558 11.912 21.1452 9.32057C23.8346 6.72408 26.4623 4.67022 29.0284 3.15898C31.5901 1.64267 33.9098 0.887054 35.9741 0.887054C40.8511 0.887054 44.6056 2.68735 47.2334 6.29303L47.2378 6.28796Z" fill="white"/>
<path d="M49.7995 5.65414C51.9166 8.57012 53.2239 12.6018 53.7257 17.7542C54.2275 22.9066 53.9458 29.0733 52.8894 36.2542C52.1235 41.1327 51.0671 45.7273 49.7114 50.0277C48.3558 54.3332 46.8416 58.0961 45.169 61.3113C43.492 64.5316 41.6962 67.0723 39.7859 68.9334C37.8712 70.7997 36.0049 71.7277 34.1827 71.7277C31.5373 71.7277 29.4157 69.8158 27.8312 65.9819C26.2422 62.1531 25.3883 56.95 25.2739 50.3777C23.0379 51.7317 20.7314 52.8524 18.3458 53.7348C15.9645 54.6172 13.6537 55.0584 11.4177 55.0584C9.18168 55.0584 7.44746 54.0442 6.39108 52.0106C5.21585 49.6373 5.0662 46.2649 5.95092 41.8934C6.83123 37.522 8.59627 32.7601 11.246 27.6127C13.1871 23.8853 15.3791 20.3811 17.822 17.0898C20.2605 13.8037 22.7474 10.9384 25.2783 8.49912C27.8048 6.05984 30.2785 4.12769 32.6905 2.70266C35.1026 1.27764 37.277 0.567657 39.2225 0.567657C43.8089 0.567657 47.339 2.26146 49.8127 5.64907L49.7995 5.65414ZM52.2688 36.0513C53.3295 29.0023 53.62 22.9522 53.1491 17.9063C52.6781 12.8553 51.4104 8.94539 49.3549 6.16634C47.0001 2.91058 43.6197 1.28778 39.2093 1.28778C37.3254 1.28778 35.195 1.98254 32.8094 3.37207C30.4281 4.7616 27.9984 6.67854 25.5292 9.11782C23.0599 11.5571 20.617 14.4021 18.2049 17.6578C15.7929 20.9136 13.6449 24.3671 11.7654 28.0286C9.17287 33.0441 7.44305 37.6691 6.55834 41.9036C5.67802 46.1381 5.79246 49.3735 6.91046 51.61C7.79078 53.4407 9.29172 54.3535 11.4089 54.3535C13.526 54.3535 15.6168 53.9478 17.8484 53.1314C20.0844 52.32 22.2588 51.3158 24.3803 50.1342C26.4975 48.9476 28.5134 47.6442 30.4237 46.2192C32.334 44.7942 34.0286 43.4757 35.4987 42.2535C36.9689 41.0313 38.5842 39.6114 40.3493 37.9835L40.7014 38.4906C39.1124 40.0526 37.6423 41.3863 36.291 42.5071C34.9353 43.6278 33.364 44.8601 31.5725 46.2192C29.7767 47.5732 27.8796 48.8613 25.8813 50.0835C25.8813 53.2024 26.0882 56.0473 26.4975 58.6235C26.9068 61.1997 27.4835 63.4007 28.2185 65.2314C28.9536 67.0621 29.8207 68.4872 30.8198 69.5014C31.819 70.5157 32.937 71.0279 34.1739 71.0279C35.9389 71.0279 37.7303 70.115 39.557 68.2843C41.3792 66.4536 43.1135 63.9636 44.7641 60.8143C46.4103 57.6651 47.8936 53.9529 49.2185 49.6829C50.5433 45.4129 51.5557 40.8741 52.2644 36.0615L52.2688 36.0513ZM27.9148 36.1528C28.2097 33.2418 28.6939 30.5287 29.3717 28.0184C30.0496 25.5132 30.7406 23.3275 31.4449 21.4613C32.1491 19.6001 33.0338 17.5818 34.0902 15.4113L34.6184 15.817C33.5576 17.9215 32.6773 19.8841 31.9731 21.7148C31.2688 23.5456 30.591 25.6958 29.9439 28.1706C29.2969 30.6453 28.8259 33.3027 28.531 36.1528H27.9148Z" fill="#DAB128"/>
<path d="M8.91759 71.4994L8.85156 71.114C56.4811 62.5283 103.318 61.94 148.065 69.3644C151.031 69.8563 154.038 70.3939 157 70.9568L156.93 71.3422C153.967 70.7793 150.965 70.2417 148.003 69.7498C103.296 62.3356 56.5031 62.9239 8.91759 71.4994Z" fill="white"/>
<path d="M75.2274 26.71C74.7741 29.631 73.6032 32.5571 71.7018 35.5035C69.8003 38.4449 67.0361 41.6601 63.396 45.144C66.0501 45.9909 68.0749 47.3805 69.4658 49.3075C70.729 51.0521 71.2 52.9335 70.8743 54.9569C70.6278 56.4631 70.0072 57.878 69.0036 59.1914C68.0044 60.51 66.7148 61.651 65.1434 62.6145C63.572 63.5781 61.8026 64.3438 59.8395 64.9118C57.8764 65.4747 55.8121 65.7587 53.6509 65.7587C50.8339 65.7587 48.3514 65.3327 46.2034 64.4858C44.0598 63.6389 42.4136 62.4168 41.2692 60.8142C39.9224 59.0241 39.4294 56.884 39.7991 54.389C40.697 48.5519 44.029 42.5019 49.7907 36.2389C47.6647 35.25 46.0934 33.9568 45.0722 32.3543C44.051 30.7568 43.6813 29.0123 43.9674 27.1309C44.2139 25.6247 44.8345 24.2149 45.8381 22.8964C46.8372 21.5778 48.1269 20.4368 49.6983 19.4733C51.2696 18.5097 53.0479 17.744 55.0286 17.176C57.0093 16.6131 59.0648 16.3291 61.1864 16.3291C64.2499 16.3291 66.8776 16.7196 69.0608 17.4955C71.244 18.2714 72.8682 19.3921 73.9334 20.8526C75.1174 22.4045 75.5487 24.362 75.223 26.715L75.2274 26.71Z" fill="#DAB128"/>
<path d="M92.7149 24.7981C94.4095 27.1714 95.5715 30.0316 96.1966 33.3787C96.8216 36.7257 96.8348 40.3568 96.2274 44.2616C95.7036 47.6087 94.7836 50.763 93.472 53.7145C92.1603 56.671 90.5933 59.2523 88.7755 61.4583C86.9576 63.6694 84.9593 65.4139 82.7805 66.6919C80.6017 67.9749 78.3789 68.6088 76.1165 68.6088C72.4016 68.6088 69.3117 66.9353 66.8512 63.5832C65.1566 61.2098 64.0078 58.3395 63.4004 54.9671C62.7929 51.5947 62.7753 47.9789 63.3387 44.1146C63.8625 40.7675 64.7825 37.6132 66.0941 34.6617C67.4058 31.7102 68.9728 29.1239 70.7906 26.9179C72.6085 24.7068 74.6156 22.9674 76.8164 21.6843C79.0172 20.4064 81.2488 19.7674 83.5068 19.7674C87.2217 19.7674 90.2896 21.4409 92.7105 24.793L92.7149 24.7981ZM75.8172 57.0362C76.1782 53.4051 76.7856 50.0226 77.6351 46.8835C78.4846 43.7444 79.3385 41.0211 80.21 38.7187C81.0771 36.4164 81.8474 34.6009 82.512 33.2773C83.1767 31.9486 83.5112 31.264 83.5112 31.2183L83.8149 31.4972C82.4812 34.1495 81.394 36.6243 80.5445 38.9266C79.695 41.229 78.8499 43.9269 78.0004 47.0204C77.1509 50.1139 76.5479 53.4508 76.1826 57.0362H75.8216H75.8172Z" fill="#DAB128"/>
<path d="M96.0689 67.8532C94.7616 67.8532 93.6172 67.1736 92.6357 65.8044C91.9006 64.8155 91.3064 63.5426 90.8574 61.9908C90.4085 60.439 90.0827 58.6742 89.8759 56.6964C89.669 54.7186 89.6206 52.5785 89.7218 50.2711C89.823 47.9636 90.0563 45.5649 90.4261 43.0699C90.9542 39.6823 91.6893 36.4924 92.6312 33.5004C93.5688 30.5134 94.634 27.8966 95.818 25.6602C97.002 23.4238 98.2697 21.659 99.6166 20.3658C100.963 19.0726 102.271 18.4235 103.538 18.4235C104.476 18.4235 105.295 18.7328 105.99 19.3414C106.685 19.955 107.267 20.7056 107.737 21.6032C108.204 22.4957 108.583 23.4745 108.869 24.5344C109.155 25.5943 109.357 26.5477 109.48 27.3946C110.788 24.5242 112.187 22.3081 113.68 20.7563C115.172 19.2045 116.629 18.4286 118.064 18.4286C119.371 18.4286 120.515 19.1132 121.497 20.4774C122.232 21.4663 122.826 22.7391 123.275 24.291C123.724 25.8428 124.05 27.6076 124.257 29.5854C124.463 31.5632 124.512 33.7032 124.411 36.0107C124.309 38.3181 124.076 40.7168 123.706 43.2119C123.174 46.5995 122.439 49.7893 121.501 52.7813C120.559 55.7734 119.498 58.3851 118.314 60.6215C117.13 62.858 115.872 64.6228 114.547 65.9159C113.217 67.2142 111.901 67.8582 110.594 67.8582C109.652 67.8582 108.838 67.5539 108.142 66.9403C107.447 66.3267 106.875 65.5762 106.426 64.6785C105.977 63.786 105.607 62.8072 105.325 61.7473C105.039 60.6874 104.837 59.734 104.714 58.8871C103.367 61.7575 101.945 63.9736 100.453 65.5254C98.9607 67.0773 97.4994 67.8532 96.0689 67.8532Z" fill="#DAB128"/>
<path d="M135.085 66.7324C132.184 66.7324 129.741 66.3318 127.76 65.5305C125.78 64.7293 124.195 63.5071 123.011 61.8589C122.113 60.586 121.448 59.1509 121.022 57.5534C120.595 55.956 120.348 54.2723 120.286 52.5075C120.225 50.7427 120.273 48.9526 120.44 47.1421C120.603 45.3317 120.806 43.6024 121.052 41.9542C121.501 39.1295 122.153 36.2592 123.011 33.3381C123.869 30.4221 125.053 27.7699 126.567 25.3965C128.077 23.0181 129.957 21.0809 132.206 19.5696C134.451 18.0634 137.188 17.3078 140.419 17.3078C142.299 17.3078 143.976 17.6375 145.446 18.2967C146.916 18.956 148.1 19.8992 149.002 21.1214C150.472 23.1449 150.983 25.5233 150.534 28.2516C150.327 29.4738 149.953 30.6554 149.403 31.7812C148.848 32.9121 148.126 33.9467 147.229 34.8899C147.431 35.1283 147.625 35.3362 147.81 35.5238C147.994 35.7115 148.188 35.9245 148.391 36.1577C149.619 37.9479 150.085 39.9257 149.799 42.0911C149.429 44.4898 148.166 46.6096 146 48.4454C146.326 48.7294 146.612 49.059 146.859 49.4343C148.289 51.3665 148.817 53.5775 148.452 56.0726C148.206 57.5331 147.677 58.9075 146.859 60.2057C146.04 61.4989 145.028 62.6298 143.826 63.5933C142.62 64.5568 141.26 65.3226 139.75 65.8906C138.236 66.4535 136.687 66.7375 135.093 66.7375L135.085 66.7324Z" fill="#DAB128"/>
<path d="M73.3259 27.3134C72.8726 30.2345 71.7018 33.1606 69.8003 36.107C67.8988 39.0484 65.1346 42.2635 61.4945 45.7475C64.1486 46.5944 66.1734 47.9839 67.5643 49.911C68.8275 51.6555 69.2985 53.537 68.9728 55.5604C68.7263 57.0666 68.1057 58.4815 67.1021 59.7949C66.1029 61.1135 64.8133 62.2545 63.2419 63.218C61.6706 64.1816 59.9011 64.9473 57.938 65.5153C55.9749 66.0782 53.9106 66.3622 51.7494 66.3622C48.9324 66.3622 46.4499 65.9362 44.3019 65.0893C42.1583 64.2424 40.5122 63.0202 39.3677 61.4177C38.0209 59.6276 37.5279 57.4875 37.8976 54.9924C38.7955 49.1554 42.1275 43.1054 47.8892 36.8424C45.7632 35.8535 44.1919 34.5603 43.1707 32.9578C42.1495 31.3603 41.7798 29.6158 42.0659 27.7344C42.3124 26.2282 42.933 24.8184 43.9366 23.4998C44.9357 22.1813 46.2254 21.0403 47.7968 20.0767C49.3681 19.1132 51.1464 18.3474 53.1271 17.7795C55.1078 17.2165 57.1633 16.9326 59.2849 16.9326C62.3484 16.9326 64.9761 17.323 67.1593 18.0989C69.3425 18.8749 70.9667 19.9956 72.0319 21.4561C73.2159 23.0079 73.6473 24.9654 73.3215 27.3185L73.3259 27.3134ZM61.0059 45.6004C64.6812 42.1165 67.4806 38.9064 69.4041 35.96C71.3232 33.0186 72.4896 30.1128 72.8946 27.2374C73.2203 25.0263 72.833 23.1905 71.7326 21.73C70.7114 20.3202 69.1356 19.2451 67.0141 18.5199C64.8881 17.7896 62.3132 17.4245 59.2893 17.4245C57.2074 17.4245 55.1914 17.6983 53.2503 18.2359C51.3092 18.7785 49.5838 19.5189 48.0741 20.4622C46.5599 21.4054 45.3055 22.511 44.3063 23.7788C43.3072 25.0517 42.7041 26.3905 42.4973 27.8054C42.2112 29.5955 42.5677 31.2538 43.5713 32.7853C44.5704 34.3169 46.1154 35.5492 48.1973 36.4924C49.9976 34.611 51.8638 32.8462 53.8049 31.198C55.746 29.5499 57.7972 28.0893 59.9627 26.8215L60.1476 27.2475C57.982 28.5204 55.7064 30.1686 53.3164 32.192C50.9263 34.2154 48.6903 36.462 46.6039 38.9368C44.522 41.4065 42.7217 44.0334 41.212 46.8125C39.6979 49.5915 38.7383 52.3655 38.3334 55.1446C37.9636 57.4064 38.417 59.4044 39.6803 61.1439C40.7851 62.6501 42.3872 63.8164 44.4912 64.638C46.5951 65.4646 49.016 65.8754 51.7538 65.8754C53.8401 65.8754 55.8517 65.6066 57.7928 65.064C59.7339 64.5213 61.4593 63.7809 62.9734 62.8377C64.4832 61.8944 65.742 60.7889 66.7412 59.5211C67.7403 58.2482 68.3434 56.9094 68.5458 55.4945C68.8319 53.6587 68.4006 51.8939 67.2606 50.2001C66.1162 48.6939 64.4524 47.4819 62.2648 46.564C60.0772 45.6461 57.6563 45.1846 55.0022 45.1846C53.6949 45.1846 52.3964 45.3012 51.1112 45.5396C49.8215 45.7779 48.5891 46.1025 47.4006 46.5285L47.2774 46.0315C49.7291 45.1846 52.304 44.7586 55.0022 44.7586C57.1677 44.7586 59.1705 45.0426 61.0103 45.6055L61.0059 45.6004Z" fill="white"/>
<path d="M91.9358 22.014C93.6525 24.4127 94.8233 27.3084 95.4571 30.7011C96.0909 34.0887 96.0997 37.7603 95.4879 41.7159C94.9553 45.1035 94.0266 48.2933 92.7017 51.2853C91.3724 54.2774 89.7879 56.8891 87.9524 59.1255C86.117 61.3619 84.0922 63.1268 81.887 64.4199C79.6818 65.7182 77.4326 66.3622 75.1438 66.3622C71.3849 66.3622 68.2597 64.6684 65.764 61.2757C64.0474 58.877 62.8854 55.9661 62.2736 52.5532C61.6618 49.1402 61.6398 45.4787 62.212 41.5739C62.7402 38.1863 63.6733 34.9964 64.9982 32.0044C66.3274 29.0174 67.912 26.4006 69.7475 24.1642C71.5873 21.9278 73.6165 20.163 75.8437 18.8698C78.0709 17.5766 80.3289 16.9275 82.6177 16.9275C86.3766 16.9275 89.4798 18.6213 91.9358 22.014ZM95.1226 41.5739C95.6948 37.7603 95.6816 34.185 95.0918 30.838C94.4976 27.496 93.3444 24.646 91.6277 22.2929C89.2553 19.0422 86.2534 17.4194 82.6177 17.4194C80.3685 17.4194 78.1633 18.0533 75.9977 19.3262C73.8321 20.5991 71.8382 22.3284 70.0204 24.5141C68.2025 26.7049 66.64 29.2811 65.3327 32.2478C64.0254 35.2145 63.1275 38.3688 62.6345 41.7108C62.0623 45.5244 62.0623 49.1047 62.6345 52.4467C63.2067 55.7886 64.3511 58.6387 66.0678 60.9917C68.4358 64.2424 71.4421 65.8652 75.0778 65.8652C77.3226 65.8652 79.541 65.2313 81.7286 63.9584C83.9118 62.6856 85.9057 60.9562 87.7059 58.7705C89.5062 56.5797 91.0555 54.0035 92.3628 51.0368C93.6701 48.0702 94.59 44.9158 95.1226 41.5739ZM74.8357 54.6374C75.201 50.9659 75.8173 47.5427 76.6756 44.3631C77.5339 41.1834 78.401 38.4297 79.2813 36.102C80.1616 33.7742 80.9363 31.9334 81.6097 30.5946C82.2832 29.2507 82.6221 28.561 82.6221 28.5103L82.9302 28.7943C81.5833 31.477 80.4785 33.9822 79.6202 36.315C78.7619 38.6427 77.9036 41.3761 77.0453 44.5051C76.187 47.634 75.5752 51.0115 75.2054 54.6374H74.8401H74.8357Z" fill="white"/>
<path d="M98.0937 66.3622C96.7864 66.3622 95.642 65.6827 94.6604 64.3134C93.9254 63.3245 93.3312 62.0516 92.8822 60.4998C92.4332 58.948 92.1075 57.1832 91.9006 55.2054C91.6938 53.2276 91.6453 51.0876 91.7466 48.7801C91.8478 46.4727 92.0811 44.074 92.4508 41.5789C92.979 38.1913 93.7141 35.0015 94.656 32.0094C95.5936 29.0225 96.6587 26.4057 97.8428 24.1693C99.0268 21.9328 100.294 20.168 101.641 18.8749C102.988 17.5817 104.295 16.9326 105.563 16.9326C106.501 16.9326 107.319 17.2419 108.015 17.8505C108.71 18.4641 109.291 19.2146 109.762 20.1122C110.229 21.0048 110.607 21.9835 110.893 23.0434C111.18 24.1033 111.382 25.0567 111.505 25.9036C112.813 23.0333 114.212 20.8171 115.704 19.2653C117.197 17.7135 118.653 16.9376 120.088 16.9376C121.396 16.9376 122.54 17.6223 123.522 18.9864C124.257 19.9753 124.851 21.2482 125.3 22.8C125.749 24.3518 126.075 26.1166 126.281 28.0944C126.484 30.0722 126.537 32.2123 126.435 34.5197C126.334 36.8271 126.101 39.2259 125.731 41.7209C125.199 45.1085 124.464 48.2984 123.526 51.2904C122.584 54.2825 121.523 56.8942 120.339 59.1306C119.155 61.367 117.896 63.1318 116.571 64.425C115.242 65.7232 113.926 66.3673 112.619 66.3673C111.677 66.3673 110.863 66.063 110.167 65.4494C109.472 64.8358 108.9 64.0852 108.451 63.1876C108.002 62.2951 107.632 61.3163 107.35 60.2564C107.064 59.1965 106.862 58.2431 106.738 57.3962C105.391 60.2666 103.97 62.4827 102.478 64.0345C100.986 65.5863 99.5242 66.3622 98.0937 66.3622ZM92.8866 41.7158C92.5213 44.1653 92.2836 46.5183 92.1823 48.7751C92.0811 51.0368 92.1207 53.1414 92.3056 55.0939C92.4905 57.0463 92.803 58.7908 93.2563 60.3173C93.7053 61.8488 94.2775 63.0811 94.9729 64.0244C95.9105 65.2465 96.9537 65.8602 98.0981 65.8602C99.489 65.8602 100.928 65.0589 102.42 63.4564C103.913 61.8589 105.308 59.5718 106.62 56.6051C106.413 54.9569 106.294 53.1921 106.25 51.3107C106.21 49.4292 106.289 47.4261 106.496 45.3063L106.928 45.3773C106.518 49.6118 106.549 53.4051 107.02 56.7471C107.491 60.0891 108.358 62.5638 109.626 64.1613C110.484 65.2922 111.483 65.8551 112.628 65.8551C113.851 65.8551 115.11 65.2212 116.395 63.9483C117.685 62.6754 118.909 60.9461 120.075 58.7604C121.237 56.5696 122.28 53.9934 123.2 51.0267C124.12 48.06 124.846 44.9057 125.375 41.5637C125.74 39.1143 125.964 36.7612 126.048 34.4994C126.132 32.2427 126.079 30.1331 125.894 28.1806C125.709 26.2282 125.392 24.4837 124.943 22.9572C124.494 21.4257 123.922 20.1934 123.227 19.2501C122.368 18.028 121.325 17.4143 120.102 17.4143C118.711 17.4143 117.28 18.2156 115.81 19.813C114.34 21.4156 112.949 23.6976 111.642 26.6643C112.011 29.8187 112.051 33.3483 111.765 37.2582L111.338 37.1872C111.54 35.1638 111.624 33.2215 111.585 31.3603C111.545 29.4992 111.4 27.7851 111.158 26.2028C110.911 24.6257 110.577 23.226 110.145 22.0038C109.718 20.7816 109.194 19.7928 108.583 19.0371C107.724 17.957 106.725 17.4143 105.581 17.4143C104.353 17.4143 103.098 18.0482 101.813 19.3211C100.523 20.594 99.2997 22.3233 98.1333 24.509C96.9713 26.6998 95.9281 29.276 95.0082 32.2427C94.0882 35.2094 93.384 38.3637 92.8954 41.7057L92.8866 41.7158Z" fill="white"/>
<path d="M137.232 66.3622C134.332 66.3622 131.889 65.9616 129.908 65.1603C127.928 64.3591 126.343 63.1369 125.159 61.4887C124.261 60.2158 123.596 58.7807 123.169 57.1832C122.742 55.5858 122.496 53.9021 122.434 52.1373C122.373 50.3725 122.421 48.5823 122.588 46.7719C122.751 44.9615 122.954 43.2322 123.2 41.584C123.649 38.7593 124.301 35.889 125.159 32.9679C126.017 30.0519 127.201 27.3997 128.715 25.0263C130.225 22.6479 132.105 20.7106 134.354 19.1994C136.599 17.6932 139.336 16.9376 142.567 16.9376C144.447 16.9376 146.124 17.2673 147.594 17.9265C149.064 18.5858 150.248 19.529 151.15 20.7512C152.62 22.7747 153.131 25.1531 152.682 27.8814C152.475 29.1036 152.101 30.2852 151.551 31.411C150.996 32.5419 150.274 33.5765 149.376 34.5197C149.579 34.7581 149.773 34.966 149.957 35.1536C150.142 35.3413 150.336 35.5543 150.538 35.7875C151.767 37.5777 152.233 39.5555 151.947 41.7209C151.577 44.1196 150.314 46.2394 148.148 48.0752C148.474 48.3592 148.76 48.6888 149.007 49.0641C150.437 50.9963 150.965 53.2073 150.6 55.7024C150.354 57.1629 149.825 58.5372 149.007 59.8355C148.188 61.1287 147.176 62.2596 145.974 63.2231C144.768 64.1866 143.408 64.9524 141.898 65.5204C140.384 66.0833 138.835 66.3673 137.241 66.3673L137.232 66.3622ZM123.623 41.7158C122.888 46.564 122.663 50.5449 122.949 53.6485C123.235 56.7572 124.072 59.2726 125.463 61.2047C127.751 64.3134 131.651 65.8652 137.171 65.8652C138.764 65.8652 140.296 65.5965 141.771 65.0538C143.241 64.5112 144.557 63.7809 145.723 62.863C146.89 61.9451 147.867 60.865 148.668 59.6174C149.464 58.3699 149.966 57.0412 150.169 55.6263C150.534 53.2733 150.045 51.1788 148.699 49.343C147.801 48.1209 146.634 47.1776 145.204 46.5183C143.773 45.8591 142.18 45.5294 140.424 45.5294C139.077 45.5294 137.739 45.7323 136.409 46.1278C135.08 46.5285 133.843 47.1269 132.703 47.9281L132.457 47.5022C133.641 46.7009 134.917 46.0873 136.286 45.6664C137.655 45.2454 139.033 45.0325 140.424 45.0325C141.815 45.0325 143.21 45.2657 144.5 45.7374C145.785 46.209 146.898 46.8683 147.84 47.7152C149.922 45.9757 151.15 43.9269 151.52 41.5738C151.846 39.5048 151.419 37.6893 150.23 36.1374C149.372 34.9609 148.219 34.043 146.766 33.3837C145.318 32.7245 143.734 32.3949 142.017 32.3949C139.891 32.3949 137.932 32.8411 136.132 33.7337L135.947 33.3077C137.906 32.3644 139.931 31.8979 142.013 31.8979C144.79 31.8979 147.14 32.6738 149.06 34.2256C150.86 32.2934 151.938 30.128 152.308 27.7293C152.678 25.1429 152.185 22.9268 150.838 21.091C149.979 19.8688 148.848 18.9509 147.435 18.3373C146.027 17.7237 144.403 17.4194 142.563 17.4194C139.416 17.4194 136.74 18.1598 134.534 19.6457C132.329 21.1265 130.489 23.0485 129.019 25.4016C127.549 27.7546 126.391 30.3714 125.555 33.2418C124.719 36.1121 124.072 38.9368 123.623 41.7158Z" fill="white"/>
</g>
<defs>
<clipPath id="clip0_7_3">
<rect width="157" height="75.9879" fill="white" transform="translate(0 0.572632)"/>
</clipPath>
</defs>
</svg>
