<svg width="157" height="77" viewBox="0 0 157 77" fill="none" xmlns="http://www.w3.org/2000/svg">
<g clip-path="url(#clip0_137_4)">
<path d="M47.2376 6.28796C49.4912 9.3865 50.8777 13.6768 51.4103 19.1538C51.9429 24.6307 51.6436 31.193 50.5212 38.8303C49.7069 44.0182 48.5801 48.9018 47.1451 53.4812C45.7058 58.0605 44.0948 62.0618 42.3122 65.4849C40.5296 68.908 38.6193 71.611 36.5901 73.5938C34.5566 75.5767 32.5671 76.5656 30.6304 76.5656C27.8134 76.5656 25.5642 74.532 23.874 70.4547C22.1882 66.3825 21.277 60.8497 21.1538 53.8615C18.777 55.3018 16.3209 56.4935 13.7856 57.4266C11.2502 58.3648 8.79416 58.8314 6.41731 58.8314C4.04046 58.8314 2.19619 57.7512 1.06939 55.5908C-0.180661 53.0704 -0.339118 49.48 0.598419 44.8347C1.53596 40.1843 3.41103 35.1232 6.22804 29.6462C8.29238 25.6805 10.6208 21.9531 13.2178 18.4539C15.8103 14.9598 18.4556 11.912 21.145 9.32057C23.8344 6.72408 26.4621 4.67022 29.0282 3.15898C31.59 1.64267 33.9096 0.887054 35.9739 0.887054C40.8509 0.887054 44.6054 2.68735 47.2332 6.29303L47.2376 6.28796Z" fill="black"/>
<path d="M49.7996 5.65414C51.9168 8.57012 53.224 12.6018 53.7258 17.7542C54.2276 22.9066 53.9459 29.0733 52.8895 36.2542C52.1236 41.1327 51.0672 45.7273 49.7116 50.0277C48.3559 54.3332 46.8417 58.0961 45.1691 61.3113C43.4921 64.5316 41.6963 67.0723 39.786 68.9334C37.8713 70.7997 36.005 71.7277 34.1828 71.7277C31.5374 71.7277 29.4159 69.8158 27.8313 65.9819C26.2423 62.1531 25.3884 56.95 25.274 50.3777C23.038 51.7317 20.7315 52.8524 18.3459 53.7348C15.9646 54.6172 13.6538 55.0584 11.4178 55.0584C9.1818 55.0584 7.44758 54.0442 6.3912 52.0106C5.21598 49.6373 5.06632 46.2649 5.95104 41.8934C6.83136 37.522 8.59639 32.7601 11.2461 27.6127C13.1872 23.8853 15.3792 20.3811 17.8221 17.0898C20.2606 13.8037 22.7475 10.9384 25.2784 8.49912C27.8049 6.05984 30.2786 4.12769 32.6906 2.70266C35.1027 1.27764 37.2771 0.567657 39.2226 0.567657C43.809 0.567657 47.3391 2.26146 49.8128 5.64907L49.7996 5.65414ZM52.2689 36.0513C53.3297 29.0023 53.6202 22.9522 53.1492 17.9063C52.6782 12.8553 51.4106 8.94539 49.355 6.16634C47.0002 2.91058 43.6198 1.28778 39.2094 1.28778C37.3255 1.28778 35.1951 1.98254 32.8095 3.37207C30.4282 4.7616 27.9986 6.67854 25.5293 9.11782C23.06 11.5571 20.6171 14.4021 18.205 17.6578C15.793 20.9136 13.645 24.3671 11.7655 28.0286C9.173 33.0441 7.44318 37.6691 6.55846 41.9036C5.67814 46.1381 5.79258 49.3735 6.91058 51.61C7.7909 53.4407 9.29184 54.3535 11.409 54.3535C13.5262 54.3535 15.6169 53.9478 17.8485 53.1314C20.0845 52.32 22.2589 51.3158 24.3805 50.1342C26.4976 48.9476 28.5135 47.6442 30.4238 46.2192C32.3341 44.7942 34.0287 43.4757 35.4989 42.2535C36.969 41.0313 38.5844 39.6114 40.3494 37.9835L40.7015 38.4906C39.1126 40.0526 37.6424 41.3863 36.2911 42.5071C34.9355 43.6278 33.3641 44.8601 31.5726 46.2192C29.7768 47.5732 27.8797 48.8613 25.8814 50.0835C25.8814 53.2024 26.0883 56.0473 26.4976 58.6235C26.907 61.1997 27.4836 63.4007 28.2186 65.2314C28.9537 67.0621 29.8208 68.4872 30.82 69.5014C31.8191 70.5157 32.9371 71.0279 34.174 71.0279C35.939 71.0279 37.7305 70.115 39.5571 68.2843C41.3794 66.4536 43.1136 63.9636 44.7642 60.8143C46.4104 57.6651 47.8937 53.9529 49.2186 49.6829C50.5435 45.4129 51.5558 40.8741 52.2645 36.0615L52.2689 36.0513ZM27.9149 36.1528C28.2098 33.2418 28.694 30.5287 29.3719 28.0184C30.0497 25.5132 30.7407 23.3275 31.445 21.4613C32.1493 19.6001 33.034 17.5818 34.0903 15.4113L34.6185 15.817C33.5578 17.9215 32.6774 19.8841 31.9732 21.7148C31.2689 23.5456 30.5911 25.6958 29.9441 28.1706C29.297 30.6453 28.8261 33.3027 28.5312 36.1528H27.9149Z" fill="#DAB128"/>
<path d="M8.91759 71.4994L8.85156 71.114C56.4811 62.5283 103.318 61.94 148.065 69.3644C151.031 69.8563 154.038 70.3939 157 70.9568L156.93 71.3422C153.967 70.7793 150.965 70.2417 148.003 69.7498C103.296 62.3356 56.5031 62.9239 8.91759 71.4994Z" fill="black"/>
<path d="M75.2274 26.71C74.7741 29.631 73.6032 32.5571 71.7018 35.5035C69.8003 38.4449 67.0361 41.6601 63.396 45.144C66.0501 45.9909 68.0749 47.3805 69.4658 49.3075C70.729 51.0521 71.2 52.9335 70.8743 54.9569C70.6278 56.4631 70.0072 57.878 69.0036 59.1914C68.0044 60.51 66.7148 61.651 65.1434 62.6145C63.572 63.5781 61.8026 64.3438 59.8395 64.9118C57.8764 65.4747 55.8121 65.7587 53.6509 65.7587C50.8339 65.7587 48.3514 65.3327 46.2034 64.4858C44.0598 63.6389 42.4136 62.4168 41.2692 60.8142C39.9224 59.0241 39.4294 56.884 39.7991 54.389C40.697 48.5519 44.029 42.5019 49.7907 36.2389C47.6647 35.25 46.0934 33.9568 45.0722 32.3543C44.051 30.7568 43.6813 29.0123 43.9674 27.1309C44.2139 25.6247 44.8345 24.2149 45.8381 22.8964C46.8372 21.5778 48.1269 20.4368 49.6983 19.4733C51.2696 18.5097 53.0479 17.744 55.0286 17.176C57.0093 16.6131 59.0648 16.3291 61.1864 16.3291C64.2499 16.3291 66.8776 16.7196 69.0608 17.4955C71.244 18.2714 72.8682 19.3921 73.9334 20.8526C75.1174 22.4045 75.5487 24.362 75.223 26.715L75.2274 26.71Z" fill="#DAB128"/>
<path d="M92.7151 24.7981C94.4097 27.1714 95.5717 30.0316 96.1967 33.3787C96.8218 36.7257 96.835 40.3568 96.2275 44.2616C95.7038 47.6087 94.7838 50.763 93.4722 53.7145C92.1605 56.671 90.5935 59.2523 88.7757 61.4583C86.9578 63.6694 84.9595 65.4139 82.7807 66.6919C80.6019 67.9749 78.3791 68.6088 76.1167 68.6088C72.4018 68.6088 69.3119 66.9353 66.8514 63.5832C65.1568 61.2098 64.008 58.3395 63.4005 54.9671C62.7931 51.5947 62.7755 47.9789 63.3389 44.1146C63.8627 40.7675 64.7826 37.6132 66.0943 34.6617C67.406 31.7102 68.973 29.1239 70.7908 26.9179C72.6087 24.7068 74.6158 22.9674 76.8166 21.6843C79.0174 20.4064 81.249 19.7674 83.507 19.7674C87.2219 19.7674 90.2898 21.4409 92.7107 24.793L92.7151 24.7981ZM75.8174 57.0362C76.1783 53.4051 76.7858 50.0226 77.6353 46.8835C78.4848 43.7444 79.3387 41.0211 80.2102 38.7187C81.0773 36.4164 81.8476 34.6009 82.5122 33.2773C83.1769 31.9486 83.5114 31.264 83.5114 31.2183L83.8151 31.4972C82.4814 34.1495 81.3942 36.6243 80.5447 38.9266C79.6952 41.229 78.8501 43.9269 78.0006 47.0204C77.1511 50.1139 76.5481 53.4508 76.1827 57.0362H75.8218H75.8174Z" fill="#DAB128"/>
<path d="M96.069 67.8532C94.7617 67.8532 93.6173 67.1736 92.6358 65.8044C91.9007 64.8155 91.3065 63.5426 90.8575 61.9908C90.4086 60.439 90.0829 58.6742 89.876 56.6964C89.6691 54.7186 89.6207 52.5785 89.7219 50.2711C89.8232 47.9636 90.0564 45.5649 90.4262 43.0699C90.9544 39.6823 91.6894 36.4924 92.6314 33.5004C93.5689 30.5134 94.6341 27.8966 95.8181 25.6602C97.0021 23.4238 98.2698 21.659 99.6167 20.3658C100.964 19.0726 102.271 18.4235 103.538 18.4235C104.476 18.4235 105.295 18.7328 105.99 19.3414C106.686 19.955 107.267 20.7056 107.738 21.6032C108.204 22.4957 108.583 23.4745 108.869 24.5344C109.155 25.5943 109.357 26.5477 109.481 27.3946C110.788 24.5242 112.188 22.3081 113.68 20.7563C115.172 19.2045 116.629 18.4286 118.064 18.4286C119.371 18.4286 120.515 19.1132 121.497 20.4774C122.232 21.4663 122.826 22.7391 123.275 24.291C123.724 25.8428 124.05 27.6076 124.257 29.5854C124.464 31.5632 124.512 33.7032 124.411 36.0107C124.31 38.3181 124.076 40.7168 123.707 43.2119C123.174 46.5995 122.439 49.7893 121.501 52.7813C120.559 55.7734 119.499 58.3851 118.315 60.6215C117.131 62.858 115.872 64.6228 114.547 65.9159C113.218 67.2142 111.901 67.8582 110.594 67.8582C109.652 67.8582 108.838 67.5539 108.143 66.9403C107.447 66.3267 106.875 65.5762 106.426 64.6785C105.977 63.786 105.607 62.8072 105.326 61.7473C105.039 60.6874 104.837 59.734 104.714 58.8871C103.367 61.7575 101.945 63.9736 100.453 65.5254C98.9608 67.0773 97.4995 67.8532 96.069 67.8532Z" fill="#DAB128"/>
<path d="M135.085 66.7324C132.184 66.7324 129.741 66.3318 127.76 65.5305C125.78 64.7293 124.195 63.5071 123.011 61.8589C122.113 60.586 121.448 59.1509 121.022 57.5534C120.595 55.956 120.348 54.2723 120.286 52.5075C120.225 50.7427 120.273 48.9526 120.44 47.1421C120.603 45.3317 120.806 43.6024 121.052 41.9542C121.501 39.1295 122.153 36.2592 123.011 33.3381C123.869 30.4221 125.053 27.7699 126.567 25.3965C128.077 23.0181 129.957 21.0809 132.206 19.5696C134.451 18.0634 137.188 17.3078 140.419 17.3078C142.299 17.3078 143.976 17.6375 145.446 18.2967C146.916 18.956 148.1 19.8992 149.002 21.1214C150.472 23.1449 150.983 25.5233 150.534 28.2516C150.327 29.4738 149.953 30.6554 149.403 31.7812C148.848 32.9121 148.126 33.9467 147.229 34.8899C147.431 35.1283 147.625 35.3362 147.81 35.5238C147.994 35.7115 148.188 35.9245 148.391 36.1577C149.619 37.9479 150.085 39.9257 149.799 42.0911C149.429 44.4898 148.166 46.6096 146 48.4454C146.326 48.7294 146.612 49.059 146.859 49.4343C148.289 51.3665 148.817 53.5775 148.452 56.0726C148.206 57.5331 147.677 58.9075 146.859 60.2057C146.04 61.4989 145.028 62.6298 143.826 63.5933C142.62 64.5568 141.26 65.3226 139.75 65.8906C138.236 66.4535 136.687 66.7375 135.093 66.7375L135.085 66.7324Z" fill="#DAB128"/>
<path d="M73.3261 27.3134C72.8727 30.2345 71.7019 33.1606 69.8004 36.107C67.8989 39.0484 65.1347 42.2635 61.4946 45.7475C64.1488 46.5944 66.1735 47.9839 67.5644 49.911C68.8277 51.6555 69.2986 53.537 68.9729 55.5604C68.7264 57.0666 68.1058 58.4815 67.1022 59.7949C66.1031 61.1135 64.8134 62.2545 63.242 63.218C61.6707 64.1816 59.9012 64.9473 57.9381 65.5153C55.975 66.0782 53.9107 66.3622 51.7495 66.3622C48.9325 66.3622 46.45 65.9362 44.302 65.0893C42.1585 64.2424 40.5123 63.0202 39.3679 61.4177C38.021 59.6276 37.528 57.4875 37.8977 54.9924C38.7957 49.1554 42.1277 43.1054 47.8893 36.8424C45.7634 35.8535 44.192 34.5603 43.1708 32.9578C42.1497 31.3603 41.7799 29.6158 42.066 27.7344C42.3125 26.2282 42.9331 24.8184 43.9367 23.4998C44.9359 22.1813 46.2255 21.0403 47.7969 20.0767C49.3683 19.1132 51.1465 18.3474 53.1272 17.7795C55.1079 17.2165 57.1635 16.9326 59.285 16.9326C62.3485 16.9326 64.9763 17.323 67.1595 18.0989C69.3426 18.8749 70.9668 19.9956 72.032 21.4561C73.216 23.0079 73.6474 24.9654 73.3217 27.3185L73.3261 27.3134ZM61.006 45.6004C64.6814 42.1165 67.4808 38.9064 69.4043 35.96C71.3233 33.0186 72.4898 30.1128 72.8947 27.2374C73.2204 25.0263 72.8331 23.1905 71.7327 21.73C70.7115 20.3202 69.1358 19.2451 67.0142 18.5199C64.8882 17.7896 62.3133 17.4245 59.2894 17.4245C57.2075 17.4245 55.1916 17.6983 53.2505 18.2359C51.3094 18.7785 49.5839 19.5189 48.0742 20.4622C46.5601 21.4054 45.3056 22.511 44.3064 23.7788C43.3073 25.0517 42.7043 26.3905 42.4974 27.8054C42.2113 29.5955 42.5678 31.2538 43.5714 32.7853C44.5705 34.3169 46.1155 35.5492 48.1974 36.4924C49.9977 34.611 51.864 32.8462 53.8051 31.198C55.7461 29.5499 57.7973 28.0893 59.9629 26.8215L60.1477 27.2475C57.9821 28.5204 55.7065 30.1686 53.3165 32.192C50.9264 34.2154 48.6904 36.462 46.6041 38.9368C44.5221 41.4065 42.7219 44.0334 41.2121 46.8125C39.698 49.5915 38.7384 52.3655 38.3335 55.1446C37.9638 57.4064 38.4171 59.4044 39.6804 61.1439C40.7852 62.6501 42.3874 63.8164 44.4913 64.638C46.5953 65.4646 49.0161 65.8754 51.7539 65.8754C53.8403 65.8754 55.8518 65.6066 57.7929 65.064C59.734 64.5213 61.4594 63.7809 62.9735 62.8377C64.4833 61.8944 65.7421 60.7889 66.7413 59.5211C67.7405 58.2482 68.3435 56.9094 68.5459 55.4945C68.832 53.6587 68.4007 51.8939 67.2607 50.2001C66.1163 48.6939 64.4525 47.4819 62.2649 46.564C60.0773 45.6461 57.6564 45.1846 55.0023 45.1846C53.695 45.1846 52.3965 45.3012 51.1113 45.5396C49.8216 45.7779 48.5892 46.1025 47.4008 46.5285L47.2775 46.0315C49.7292 45.1846 52.3041 44.7586 55.0023 44.7586C57.1679 44.7586 59.1706 45.0426 61.0104 45.6055L61.006 45.6004Z" fill="black"/>
<path d="M91.936 22.014C93.6526 24.4127 94.8234 27.3084 95.4572 30.7011C96.0911 34.0887 96.0999 37.7603 95.488 41.7159C94.9555 45.1035 94.0267 48.2933 92.7018 51.2853C91.3726 54.2774 89.788 56.8891 87.9525 59.1255C86.1171 61.3619 84.0924 63.1268 81.8872 64.4199C79.682 65.7182 77.4328 66.3622 75.1439 66.3622C71.385 66.3622 68.2599 64.6684 65.7642 61.2757C64.0476 58.877 62.8855 55.9661 62.2737 52.5532C61.6619 49.1402 61.6399 45.4787 62.2121 41.5739C62.7403 38.1863 63.6734 34.9964 64.9983 32.0044C66.3276 29.0174 67.9121 26.4006 69.7476 24.1642C71.5875 21.9278 73.6166 20.163 75.8438 18.8698C78.071 17.5766 80.329 16.9275 82.6178 16.9275C86.3768 16.9275 89.4799 18.6213 91.936 22.014ZM95.1227 41.5739C95.6949 37.7603 95.6817 34.185 95.0919 30.838C94.4977 27.496 93.3445 24.646 91.6279 22.2929C89.2554 19.0422 86.2535 17.4194 82.6178 17.4194C80.3686 17.4194 78.1634 18.0533 75.9978 19.3262C73.8323 20.5991 71.8384 22.3284 70.0205 24.5141C68.2026 26.7049 66.6401 29.2811 65.3328 32.2478C64.0255 35.2145 63.1276 38.3688 62.6346 41.7108C62.0624 45.5244 62.0624 49.1047 62.6346 52.4467C63.2069 55.7886 64.3513 58.6387 66.0679 60.9917C68.4359 64.2424 71.4422 65.8652 75.0779 65.8652C77.3227 65.8652 79.5411 65.2313 81.7287 63.9584C83.9119 62.6856 85.9058 60.9562 87.706 58.7705C89.5063 56.5797 91.0557 54.0035 92.3629 51.0368C93.6702 48.0702 94.5901 44.9158 95.1227 41.5739ZM74.8358 54.6374C75.2012 50.9659 75.8174 47.5427 76.6757 44.3631C77.534 41.1834 78.4011 38.4297 79.2814 36.102C80.1617 33.7742 80.9364 31.9334 81.6099 30.5946C82.2833 29.2507 82.6222 28.561 82.6222 28.5103L82.9303 28.7943C81.5835 31.477 80.4787 33.9822 79.6203 36.315C78.762 38.6427 77.9037 41.3761 77.0454 44.5051C76.1871 47.634 75.5753 51.0115 75.2056 54.6374H74.8402H74.8358Z" fill="black"/>
<path d="M98.0934 66.3622C96.7861 66.3622 95.6417 65.6827 94.6602 64.3134C93.9251 63.3245 93.3309 62.0516 92.8819 60.4998C92.433 58.948 92.1073 57.1832 91.9004 55.2054C91.6935 53.2276 91.6451 51.0876 91.7463 48.7801C91.8476 46.4727 92.0809 44.074 92.4506 41.5789C92.9788 38.1913 93.7138 35.0015 94.6558 32.0094C95.5933 29.0225 96.6585 26.4057 97.8425 24.1693C99.0266 21.9328 100.294 20.168 101.641 18.8749C102.988 17.5817 104.295 16.9326 105.563 16.9326C106.5 16.9326 107.319 17.2419 108.015 17.8505C108.71 18.4641 109.291 19.2146 109.762 20.1122C110.229 21.0048 110.607 21.9835 110.893 23.0434C111.179 24.1033 111.382 25.0567 111.505 25.9036C112.812 23.0333 114.212 20.8171 115.704 19.2653C117.196 17.7135 118.653 16.9376 120.088 16.9376C121.395 16.9376 122.54 17.6223 123.521 18.9864C124.256 19.9753 124.851 21.2482 125.3 22.8C125.749 24.3518 126.074 26.1166 126.281 28.0944C126.484 30.0722 126.536 32.2123 126.435 34.5197C126.334 36.8271 126.101 39.2259 125.731 41.7209C125.198 45.1085 124.463 48.2984 123.526 51.2904C122.584 54.2825 121.523 56.8942 120.339 59.1306C119.155 61.367 117.896 63.1318 116.571 64.425C115.242 65.7232 113.926 66.3673 112.619 66.3673C111.677 66.3673 110.862 66.063 110.167 65.4494C109.472 64.8358 108.899 64.0852 108.45 63.1876C108.001 62.2951 107.632 61.3163 107.35 60.2564C107.064 59.1965 106.861 58.2431 106.738 57.3962C105.391 60.2666 103.97 62.4827 102.477 64.0345C100.985 65.5863 99.5239 66.3622 98.0934 66.3622ZM92.8863 41.7158C92.521 44.1653 92.2833 46.5183 92.1821 48.7751C92.0809 51.0368 92.1205 53.1414 92.3053 55.0939C92.4902 57.0463 92.8027 58.7908 93.2561 60.3173C93.705 61.8488 94.2773 63.0811 94.9727 64.0244C95.9102 65.2465 96.9534 65.8602 98.0978 65.8602C99.4887 65.8602 100.928 65.0589 102.42 63.4564C103.912 61.8589 105.308 59.5718 106.619 56.6051C106.412 54.9569 106.294 53.1921 106.25 51.3107C106.21 49.4292 106.289 47.4261 106.496 45.3063L106.927 45.3773C106.518 49.6118 106.549 53.4051 107.02 56.7471C107.491 60.0891 108.358 62.5638 109.626 64.1613C110.484 65.2922 111.483 65.8551 112.627 65.8551C113.851 65.8551 115.11 65.2212 116.395 63.9483C117.685 62.6754 118.908 60.9461 120.075 58.7604C121.237 56.5696 122.28 53.9934 123.2 51.0267C124.12 48.06 124.846 44.9057 125.374 41.5637C125.74 39.1143 125.964 36.7612 126.048 34.4994C126.131 32.2427 126.079 30.1331 125.894 28.1806C125.709 26.2282 125.392 24.4837 124.943 22.9572C124.494 21.4257 123.922 20.1934 123.226 19.2501C122.368 18.028 121.325 17.4143 120.101 17.4143C118.71 17.4143 117.28 18.2156 115.81 19.813C114.34 21.4156 112.949 23.6976 111.641 26.6643C112.011 29.8187 112.051 33.3483 111.765 37.2582L111.338 37.1872C111.54 35.1638 111.624 33.2215 111.584 31.3603C111.545 29.4992 111.399 27.7851 111.157 26.2028C110.911 24.6257 110.576 23.226 110.145 22.0038C109.718 20.7816 109.194 19.7928 108.582 19.0371C107.724 17.957 106.725 17.4143 105.581 17.4143C104.352 17.4143 103.098 18.0482 101.813 19.3211C100.523 20.594 99.2995 22.3233 98.133 24.509C96.971 26.6998 95.9278 29.276 95.0079 32.2427C94.088 35.2094 93.3837 38.3637 92.8952 41.7057L92.8863 41.7158Z" fill="black"/>
<path d="M137.232 66.3622C134.332 66.3622 131.889 65.9616 129.908 65.1603C127.928 64.3591 126.343 63.1369 125.159 61.4887C124.261 60.2158 123.596 58.7807 123.169 57.1832C122.742 55.5858 122.496 53.9021 122.434 52.1373C122.373 50.3725 122.421 48.5823 122.588 46.7719C122.751 44.9615 122.954 43.2322 123.2 41.584C123.649 38.7593 124.301 35.889 125.159 32.9679C126.017 30.0519 127.201 27.3997 128.715 25.0263C130.225 22.6479 132.105 20.7106 134.354 19.1994C136.599 17.6932 139.336 16.9376 142.567 16.9376C144.447 16.9376 146.124 17.2673 147.594 17.9265C149.064 18.5858 150.248 19.529 151.15 20.7512C152.62 22.7747 153.131 25.1531 152.682 27.8814C152.475 29.1036 152.101 30.2852 151.551 31.411C150.996 32.5419 150.274 33.5765 149.376 34.5197C149.579 34.7581 149.773 34.966 149.957 35.1536C150.142 35.3413 150.336 35.5543 150.538 35.7875C151.767 37.5777 152.233 39.5555 151.947 41.7209C151.577 44.1196 150.314 46.2394 148.148 48.0752C148.474 48.3592 148.76 48.6888 149.007 49.0641C150.437 50.9963 150.965 53.2073 150.6 55.7024C150.354 57.1629 149.825 58.5372 149.007 59.8355C148.188 61.1287 147.176 62.2596 145.974 63.2231C144.768 64.1866 143.408 64.9524 141.898 65.5204C140.384 66.0833 138.835 66.3673 137.241 66.3673L137.232 66.3622ZM123.623 41.7158C122.888 46.564 122.663 50.5449 122.949 53.6485C123.235 56.7572 124.072 59.2726 125.463 61.2047C127.751 64.3134 131.651 65.8652 137.171 65.8652C138.764 65.8652 140.296 65.5965 141.771 65.0538C143.241 64.5112 144.557 63.7809 145.723 62.863C146.89 61.9451 147.867 60.865 148.668 59.6174C149.464 58.3699 149.966 57.0412 150.169 55.6263C150.534 53.2733 150.045 51.1788 148.699 49.343C147.801 48.1209 146.634 47.1776 145.204 46.5183C143.773 45.8591 142.18 45.5294 140.424 45.5294C139.077 45.5294 137.739 45.7323 136.409 46.1278C135.08 46.5285 133.843 47.1269 132.703 47.9281L132.457 47.5022C133.641 46.7009 134.917 46.0873 136.286 45.6664C137.655 45.2454 139.033 45.0325 140.424 45.0325C141.815 45.0325 143.21 45.2657 144.5 45.7374C145.785 46.209 146.898 46.8683 147.84 47.7152C149.922 45.9757 151.15 43.9269 151.52 41.5738C151.846 39.5048 151.419 37.6893 150.23 36.1374C149.372 34.9609 148.219 34.043 146.766 33.3837C145.318 32.7245 143.734 32.3949 142.017 32.3949C139.891 32.3949 137.932 32.8411 136.132 33.7337L135.947 33.3077C137.906 32.3644 139.931 31.8979 142.013 31.8979C144.79 31.8979 147.14 32.6738 149.06 34.2256C150.86 32.2934 151.938 30.128 152.308 27.7293C152.678 25.1429 152.185 22.9268 150.838 21.091C149.979 19.8688 148.848 18.9509 147.435 18.3373C146.027 17.7237 144.403 17.4194 142.563 17.4194C139.416 17.4194 136.74 18.1598 134.534 19.6457C132.329 21.1265 130.489 23.0485 129.019 25.4016C127.549 27.7546 126.391 30.3714 125.555 33.2418C124.719 36.1121 124.072 38.9368 123.623 41.7158Z" fill="black"/>
</g>
<defs>
<clipPath id="clip0_137_4">
<rect width="157" height="75.9879" fill="white" transform="translate(0 0.572632)"/>
</clipPath>
</defs>
</svg>
