<svg width="91" height="44" viewBox="0 0 91 44" fill="none" xmlns="http://www.w3.org/2000/svg">
<g clip-path="url(#clip0_324_2)">
<path d="M27.3799 3.30947C28.6861 5.10365 29.4897 7.5879 29.7984 10.7593C30.1071 13.9307 29.9336 17.7304 29.2831 22.1528C28.8111 25.1568 28.158 27.9846 27.3263 30.6362C26.492 33.2878 25.5583 35.6047 24.525 37.5868C23.4918 39.5689 22.3845 41.1341 21.2084 42.2822C20.0298 43.4304 18.8766 44.003 17.754 44.003C16.1213 44.003 14.8176 42.8255 13.8379 40.4646C12.8608 38.1066 12.3327 34.9029 12.2612 30.8564C10.8836 31.6904 9.45999 32.3805 7.99047 32.9208C6.52096 33.464 5.09737 33.7342 3.71971 33.7342C2.34204 33.7342 1.27307 33.1087 0.619956 31.8578C-0.104595 30.3984 -0.196439 28.3193 0.346974 25.6295C0.890387 22.9368 1.97721 20.0062 3.61 16.8348C4.80653 14.5385 6.15614 12.3802 7.66136 10.354C9.16404 8.33082 10.6973 6.56601 12.2561 5.06547C13.8149 3.562 15.338 2.37273 16.8254 1.49767C18.3102 0.619662 19.6547 0.182129 20.8512 0.182129C23.678 0.182129 25.8542 1.22457 27.3773 3.3124L27.3799 3.30947Z" fill="white"/>
<path d="M28.8647 2.94235C30.0918 4.63081 30.8495 6.9653 31.1404 9.94875C31.4312 12.9322 31.2679 16.5029 30.6556 20.661C30.2117 23.4859 29.5994 26.1463 28.8137 28.6364C28.0279 31.1295 27.1502 33.3083 26.1808 35.1701C25.2088 37.0347 24.1679 38.5059 23.0606 39.5836C21.9508 40.6642 20.8691 41.2016 19.8129 41.2016C18.2796 41.2016 17.0499 40.0945 16.1315 37.8745C15.2105 35.6575 14.7155 32.6447 14.6492 28.839C13.3532 29.6231 12.0163 30.272 10.6336 30.783C9.25333 31.2939 7.91393 31.5494 6.61791 31.5494C5.32188 31.5494 4.31669 30.9621 3.7044 29.7846C3.02322 28.4103 2.93648 26.4576 3.44927 23.9263C3.95952 21.3951 4.98257 18.6378 6.51841 15.6572C7.6435 13.4989 8.91402 11.4698 10.33 9.56408C11.7433 7.66125 13.1848 6.00214 14.6517 4.5897C16.1162 3.17726 17.5499 2.05847 18.948 1.23332C20.3461 0.408176 21.6064 -0.00292969 22.7341 -0.00292969C25.3924 -0.00292969 27.4385 0.97785 28.8723 2.93941L28.8647 2.94235ZM30.2959 20.5435C30.9108 16.4618 31.0791 12.9586 30.8062 10.0368C30.5332 7.11213 29.7984 4.84811 28.607 3.23893C27.2421 1.35372 25.2827 0.414048 22.7264 0.414048C21.6345 0.414048 20.3997 0.816344 19.0169 1.62094C17.6367 2.42553 16.2284 3.53551 14.7972 4.94795C13.3659 6.36039 11.95 8.00775 10.5519 9.89296C9.15383 11.7782 7.90883 13.7779 6.81945 15.898C5.31678 18.8022 4.31414 21.4803 3.80134 23.9322C3.2911 26.3842 3.35743 28.2576 4.00544 29.5526C4.51569 30.6127 5.38566 31.1412 6.6128 31.1412C7.83995 31.1412 9.05178 30.9063 10.3453 30.4335C11.6413 29.9637 12.9016 29.3823 14.1313 28.6981C15.3584 28.011 16.5269 27.2563 17.6341 26.4311C18.7414 25.606 19.7236 24.8425 20.5757 24.1348C21.4278 23.4271 22.3641 22.6049 23.3872 21.6623L23.5913 21.956C22.6703 22.8604 21.8182 23.6327 21.0349 24.2816C20.2492 24.9306 19.3384 25.6442 18.3 26.4311C17.2591 27.2152 16.1595 27.961 15.0013 28.6687C15.0013 30.4746 15.1212 32.122 15.3584 33.6137C15.5957 35.1055 15.9299 36.3799 16.356 37.4399C16.782 38.5 17.2846 39.3252 17.8637 39.9124C18.4429 40.4997 19.0909 40.7963 19.8078 40.7963C20.8308 40.7963 21.8692 40.2678 22.928 39.2077C23.9842 38.1476 24.9893 36.7058 25.9461 34.8823C26.9002 33.0587 27.76 30.9092 28.5279 28.4367C29.2958 25.9642 29.8826 23.3361 30.2934 20.5494L30.2959 20.5435ZM16.1799 20.6023C16.3509 18.9167 16.6315 17.3457 17.0244 15.8922C17.4173 14.4415 17.8178 13.1759 18.226 12.0953C18.6342 11.0176 19.147 9.84891 19.7593 8.59211L20.0655 8.82702C19.4506 10.0457 18.9404 11.1821 18.5322 12.2421C18.124 13.3022 17.7311 14.5473 17.3561 15.9803C16.981 17.4132 16.708 18.952 16.5371 20.6023H16.1799Z" fill="#DAB128"/>
<path d="M5.16881 41.0694L5.13054 40.8462C32.7375 35.8748 59.8851 35.5341 85.821 39.8331C87.5405 40.118 89.283 40.4292 91 40.7552L90.9592 40.9783C89.2422 40.6524 87.5023 40.3411 85.7853 40.0563C59.8724 35.7632 32.7502 36.1038 5.16881 41.0694Z" fill="white"/>
<path d="M43.6032 15.1345C43.3404 16.8259 42.6617 18.5202 41.5596 20.2263C40.4575 21.9295 38.8553 23.7912 36.7454 25.8085C38.2838 26.2989 39.4574 27.1035 40.2636 28.2194C40.9958 29.2295 41.2688 30.3189 41.08 31.4906C40.9371 32.3627 40.5774 33.182 39.9957 33.9425C39.4166 34.706 38.6691 35.3667 37.7583 35.9247C36.8475 36.4826 35.8219 36.926 34.684 37.2549C33.5462 37.5808 32.3497 37.7453 31.097 37.7453C29.4642 37.7453 28.0253 37.4986 26.7803 37.0082C25.5379 36.5178 24.5837 35.8101 23.9204 34.8822C23.1397 33.8456 22.854 32.6065 23.0683 31.1617C23.5887 27.7818 25.52 24.2786 28.8596 20.6521C27.6273 20.0795 26.7165 19.3307 26.1246 18.4028C25.5328 17.4778 25.3185 16.4676 25.4843 15.3782C25.6272 14.5061 25.9869 13.6897 26.5686 12.9263C27.1477 12.1628 27.8952 11.5021 28.806 10.9441C29.7168 10.3862 30.7475 9.94281 31.8955 9.61393C33.0436 9.28798 34.235 9.12354 35.4647 9.12354C37.2404 9.12354 38.7635 9.34964 40.0289 9.79892C41.2943 10.2482 42.2357 10.8972 42.8531 11.7429C43.5394 12.6414 43.7894 13.7749 43.6006 15.1374L43.6032 15.1345Z" fill="#DAB128"/>
<path d="M53.7392 14.0275C54.7214 15.4017 55.395 17.0579 55.7572 18.996C56.1195 20.934 56.1272 23.0366 55.7751 25.2976C55.4715 27.2357 54.9383 29.0622 54.178 30.7712C53.4178 32.4832 52.5095 33.9778 51.4559 35.2552C50.4022 36.5355 49.2439 37.5456 47.9811 38.2856C46.7182 39.0285 45.4298 39.3956 44.1185 39.3956C41.9653 39.3956 40.1743 38.4266 38.7481 36.4856C37.7659 35.1113 37.1 33.4493 36.748 31.4965C36.3959 29.5438 36.3857 27.4501 36.7123 25.2125C37.0159 23.2744 37.5491 21.4479 38.3093 19.7389C39.0696 18.0299 39.9778 16.5323 41.0315 15.2549C42.0852 13.9746 43.2485 12.9674 44.5241 12.2245C45.7998 11.4845 47.0932 11.1145 48.402 11.1145C50.5553 11.1145 52.3335 12.0835 53.7367 14.0245L53.7392 14.0275ZM43.945 32.6946C44.1542 30.5921 44.5063 28.6335 44.9987 26.8158C45.4911 24.9981 45.986 23.4212 46.4911 22.0881C46.9937 20.7549 47.4402 19.7037 47.8254 18.9372C48.2107 18.1679 48.4046 17.7715 48.4046 17.745L48.5806 17.9065C47.8076 19.4423 47.1774 20.8753 46.685 22.2085C46.1927 23.5416 45.7028 25.1038 45.2104 26.8951C44.718 28.6863 44.3685 30.6185 44.1568 32.6946H43.9476H43.945Z" fill="#DAB128"/>
<path d="M55.6832 38.9582C54.9255 38.9582 54.2622 38.5647 53.6933 37.7718C53.2672 37.1992 52.9228 36.4622 52.6626 35.5636C52.4024 34.665 52.2136 33.6432 52.0937 32.4979C51.9738 31.3527 51.9457 30.1135 52.0044 28.7774C52.063 27.4413 52.1983 26.0524 52.4126 24.6076C52.7187 22.6461 53.1448 20.7991 53.6907 19.0665C54.2341 17.337 54.8515 15.8217 55.5378 14.5268C56.2241 13.2318 56.9589 12.2099 57.7395 11.4611C58.5202 10.7123 59.2779 10.3364 60.0127 10.3364C60.5561 10.3364 61.0306 10.5155 61.4337 10.8679C61.8368 11.2232 62.1736 11.6578 62.4466 12.1776C62.717 12.6944 62.9364 13.2611 63.1022 13.8749C63.2681 14.4886 63.3854 15.0406 63.4569 15.531C64.2146 13.869 65.0259 12.5858 65.8907 11.6872C66.7556 10.7886 67.6001 10.3394 68.4318 10.3394C69.1895 10.3394 69.8528 10.7358 70.4217 11.5257C70.8478 12.0983 71.1922 12.8354 71.4524 13.7339C71.7127 14.6325 71.9014 15.6544 72.0214 16.7996C72.1413 17.9448 72.1693 19.184 72.1107 20.5201C72.052 21.8562 71.9168 23.2451 71.7025 24.6899C71.3938 26.6514 70.9677 28.4985 70.4243 30.231C69.8783 31.9635 69.2635 33.4758 68.5772 34.7708C67.8909 36.0657 67.1613 37.0876 66.3933 37.8364C65.6229 38.5882 64.86 38.9611 64.1023 38.9611C63.5564 38.9611 63.0844 38.7849 62.6813 38.4296C62.2782 38.0743 61.9465 37.6397 61.6863 37.1199C61.4261 36.6031 61.2118 36.0364 61.0485 35.4227C60.8827 34.8089 60.7653 34.2569 60.6939 33.7665C59.9132 35.4285 59.0891 36.7118 58.2243 37.6103C57.3594 38.5089 56.5124 38.9582 55.6832 38.9582Z" fill="#DAB128"/>
<path d="M78.2974 38.3092C76.6161 38.3092 75.2002 38.0772 74.0521 37.6133C72.9041 37.1493 71.9856 36.4416 71.2994 35.4873C70.7789 34.7502 70.3937 33.9192 70.1462 32.9942C69.8987 32.0692 69.7559 31.0943 69.7201 30.0724C69.6844 29.0505 69.7125 28.014 69.8094 26.9657C69.9038 25.9173 70.0212 24.916 70.1641 23.9617C70.4243 22.326 70.8019 20.664 71.2994 18.9726C71.7969 17.2841 72.4831 15.7484 73.3608 14.3741C74.2358 12.9969 75.3252 11.8752 76.6289 11.0001C77.93 10.128 79.5169 9.69043 81.3895 9.69043C82.4789 9.69043 83.4509 9.8813 84.303 10.263C85.1551 10.6448 85.8414 11.191 86.3644 11.8987C87.2165 13.0703 87.5125 14.4475 87.2522 16.0273C87.1323 16.735 86.9155 17.4192 86.5966 18.0711C86.2751 18.7259 85.8567 19.325 85.3363 19.8712C85.4536 20.0092 85.5659 20.1296 85.673 20.2382C85.7802 20.3469 85.8924 20.4702 86.0098 20.6053C86.7216 21.6418 86.992 22.7871 86.8262 24.0409C86.6119 25.4299 85.8797 26.6573 84.6245 27.7203C84.8133 27.8848 84.9791 28.0756 85.1219 28.2929C85.9511 29.4117 86.2572 30.692 86.0455 32.1368C85.9026 32.9825 85.5965 33.7783 85.1219 34.53C84.6474 35.2788 84.0606 35.9336 83.3642 36.4916C82.6651 37.0495 81.8768 37.4929 81.0017 37.8218C80.1241 38.1477 79.226 38.3122 78.3025 38.3122L78.2974 38.3092Z" fill="#DAB128"/>
<path d="M42.501 15.4841C42.2382 17.1755 41.5596 18.8698 40.4575 20.5759C39.3554 22.2791 37.7532 24.1408 35.6433 26.1581C37.1817 26.6485 38.3553 27.4531 39.1615 28.569C39.8937 29.5791 40.1666 30.6686 39.9779 31.8402C39.835 32.7123 39.4753 33.5316 38.8936 34.2922C38.3144 35.0556 37.5669 35.7163 36.6561 36.2743C35.7454 36.8322 34.7198 37.2756 33.5819 37.6045C32.4441 37.9304 31.2475 38.0949 29.9949 38.0949C28.3621 38.0949 26.9232 37.8482 25.6782 37.3578C24.4357 36.8674 23.4816 36.1597 22.8182 35.2318C22.0376 34.1952 21.7518 32.9561 21.9661 31.5113C22.4866 28.1314 24.4179 24.6282 27.7574 21.0017C26.5252 20.4291 25.6144 19.6803 25.0225 18.7524C24.4306 17.8274 24.2163 16.8172 24.3822 15.7278C24.525 14.8557 24.8847 14.0393 25.4664 13.2759C26.0456 12.5124 26.7931 11.8517 27.7039 11.2938C28.6147 10.7358 29.6454 10.2924 30.7934 9.96353C31.9415 9.63759 33.1329 9.47314 34.3626 9.47314C36.1382 9.47314 37.6613 9.69925 38.9267 10.1485C40.1922 10.5978 41.1336 11.2468 41.751 12.0925C42.4372 12.991 42.6873 14.1245 42.4985 15.487L42.501 15.4841ZM35.3601 26.073C37.4904 24.0556 39.113 22.1969 40.2279 20.4908C41.3402 18.7876 42.0163 17.105 42.251 15.44C42.4398 14.1597 42.2153 13.0967 41.5775 12.251C40.9856 11.4347 40.0722 10.8122 38.8426 10.3923C37.6103 9.96941 36.1178 9.75798 34.3651 9.75798C33.1584 9.75798 31.9899 9.91655 30.8648 10.2278C29.7397 10.542 28.7397 10.9707 27.8646 11.5169C26.987 12.0631 26.2599 12.7033 25.6807 13.4374C25.1016 14.1744 24.7521 14.9497 24.6322 15.7689C24.4663 16.8055 24.673 17.7657 25.2547 18.6525C25.8338 19.5393 26.7293 20.2529 27.936 20.7991C28.9795 19.7097 30.0612 18.6878 31.1863 17.7334C32.3114 16.7791 33.5003 15.9334 34.7555 15.1993L34.8626 15.4459C33.6074 16.183 32.2884 17.1373 30.9031 18.309C29.5178 19.4806 28.2218 20.7815 27.0125 22.2145C25.8057 23.6445 24.7623 25.1656 23.8872 26.7748C23.0096 28.384 22.4534 29.9902 22.2187 31.5994C22.0044 32.9091 22.2672 34.066 22.9994 35.0733C23.6397 35.9454 24.5684 36.6208 25.7879 37.0965C27.0074 37.5751 28.4106 37.813 29.9974 37.813C31.2067 37.813 32.3726 37.6573 33.4977 37.3431C34.6228 37.0289 35.6229 36.6002 36.5005 36.054C37.3756 35.5078 38.1052 34.8677 38.6844 34.1336C39.2635 33.3965 39.613 32.6213 39.7304 31.802C39.8962 30.739 39.6462 29.7171 38.9854 28.7364C38.3221 27.8642 37.3577 27.1624 36.0898 26.6309C34.8218 26.0994 33.4186 25.8322 31.8802 25.8322C31.1225 25.8322 30.3699 25.8997 29.6249 26.0377C28.8774 26.1758 28.1631 26.3637 27.4743 26.6104L27.4028 26.3226C28.8239 25.8322 30.3163 25.5855 31.8802 25.5855C33.1354 25.5855 34.2963 25.75 35.3627 26.0759L35.3601 26.073Z" fill="white"/>
<path d="M53.2876 12.4155C54.2826 13.8044 54.9613 15.4812 55.3286 17.4457C55.696 19.4072 55.7011 21.5332 55.3465 23.8237C55.0378 25.7852 54.4995 27.6323 53.7316 29.3648C52.9611 31.0973 52.0426 32.6096 50.9788 33.9045C49.9149 35.1995 48.7413 36.2214 47.4632 36.9702C46.185 37.722 44.8813 38.0949 43.5547 38.0949C41.3759 38.0949 39.5646 37.1141 38.118 35.1496C37.123 33.7607 36.4495 32.0751 36.0949 30.0989C35.7402 28.1226 35.7275 26.0025 36.0592 23.7414C36.3653 21.7799 36.9062 19.9328 37.6741 18.2003C38.4446 16.4707 39.363 14.9555 40.4269 13.6606C41.4933 12.3656 42.6694 11.3437 43.9603 10.5949C45.2513 9.84608 46.56 9.47021 47.8867 9.47021C50.0654 9.47021 51.8641 10.451 53.2876 12.4155ZM55.1347 23.7414C55.4664 21.5332 55.4587 19.463 55.1169 17.5249C54.7725 15.5898 54.104 13.9395 53.1091 12.577C51.7339 10.6947 49.994 9.75505 47.8867 9.75505C46.583 9.75505 45.3048 10.1221 44.0496 10.8592C42.7944 11.5962 41.6387 12.5976 40.585 13.8632C39.5314 15.1317 38.6257 16.6234 37.868 18.3413C37.1103 20.0591 36.5898 21.8856 36.3041 23.8207C35.9724 26.0289 35.9724 28.1021 36.3041 30.0372C36.6357 31.9724 37.2991 33.6226 38.294 34.9852C39.6666 36.8674 41.4091 37.8071 43.5164 37.8071C44.8175 37.8071 46.1034 37.4401 47.3713 36.703C48.6367 35.9659 49.7925 34.9646 50.8359 33.699C51.8794 32.4304 52.7774 30.9387 53.5351 29.2209C54.2928 27.5031 54.826 25.6766 55.1347 23.7414ZM43.3761 31.3058C43.5879 29.1798 43.945 27.1977 44.4425 25.3565C44.94 23.5153 45.4426 21.9208 45.9528 20.573C46.4631 19.2252 46.9121 18.1592 47.3024 17.384C47.6928 16.6058 47.8892 16.2065 47.8892 16.1771L48.0678 16.3415C47.2871 17.8949 46.6468 19.3456 46.1493 20.6963C45.6518 22.0442 45.1543 23.6269 44.6568 25.4387C44.1593 27.2505 43.8047 29.2062 43.5904 31.3058H43.3786H43.3761Z" fill="white"/>
<path d="M56.8568 38.0949C56.0991 38.0949 55.4358 37.7014 54.8669 36.9085C54.4408 36.3359 54.0964 35.5989 53.8362 34.7003C53.5759 33.8018 53.3871 32.7799 53.2672 31.6347C53.1473 30.4894 53.1193 29.2502 53.1779 27.9141C53.2366 26.5781 53.3718 25.1891 53.5861 23.7444C53.8923 21.7828 54.3183 19.9358 54.8643 18.2033C55.4077 16.4737 56.0251 14.9585 56.7114 13.6635C57.3977 12.3685 58.1324 11.3466 58.9131 10.5978C59.6938 9.84901 60.4515 9.47314 61.1863 9.47314C61.7297 9.47314 62.2042 9.65227 62.6073 10.0046C63.0104 10.36 63.3472 10.7946 63.6201 11.3143C63.8906 11.8311 64.11 12.3979 64.2758 13.0116C64.4416 13.6253 64.559 14.1774 64.6304 14.6678C65.3881 13.0057 66.1994 11.7225 67.0643 10.8239C67.9292 9.92536 68.7736 9.47608 69.6053 9.47608C70.3631 9.47608 71.0264 9.8725 71.5953 10.6624C72.0214 11.235 72.3658 11.9721 72.626 12.8706C72.8862 13.7692 73.075 14.7911 73.1949 15.9363C73.3123 17.0815 73.3429 18.3207 73.2842 19.6568C73.2255 20.9929 73.0903 22.3818 72.876 23.8266C72.5673 25.7881 72.1413 27.6352 71.5979 29.3677C71.0519 31.1002 70.437 32.6125 69.7508 33.9075C69.0645 35.2025 68.3348 36.2244 67.5669 36.9731C66.7964 37.7249 66.0336 38.0978 65.2759 38.0978C64.7299 38.0978 64.2579 37.9216 63.8549 37.5663C63.4518 37.211 63.1201 36.7764 62.8599 36.2567C62.5996 35.7398 62.3853 35.1731 62.2221 34.5594C62.0562 33.9457 61.9389 33.3936 61.8674 32.9032C61.0868 34.5652 60.2627 35.8485 59.3978 36.747C58.533 37.6456 57.686 38.0949 56.8568 38.0949ZM53.8387 23.8237C53.627 25.242 53.4892 26.6045 53.4305 27.9112C53.3718 29.2209 53.3948 30.4395 53.5019 31.57C53.6091 32.7006 53.7902 33.7107 54.053 34.5946C54.3132 35.4814 54.6449 36.195 55.048 36.7412C55.5914 37.4489 56.196 37.8042 56.8594 37.8042C57.6656 37.8042 58.4998 37.3402 59.3647 36.4123C60.2296 35.4873 61.0383 34.1629 61.7986 32.4451C61.6787 31.4908 61.6098 30.4689 61.5843 29.3794C61.5613 28.29 61.6072 27.1301 61.7271 25.9027L61.9771 25.9438C61.7399 28.3957 61.7577 30.5922 62.0307 32.5273C62.3037 34.4625 62.8063 35.8955 63.5411 36.8205C64.0385 37.4753 64.6177 37.8012 65.281 37.8012C65.9902 37.8012 66.7199 37.4342 67.4649 36.6971C68.2124 35.9601 68.9216 34.9587 69.5977 33.6931C70.2712 32.4246 70.8759 30.9328 71.4091 29.215C71.9423 27.4972 72.3632 25.6707 72.6694 23.7356C72.8811 22.3172 73.0112 20.9547 73.0597 19.6451C73.1082 18.3383 73.0776 17.1168 72.9704 15.9862C72.8633 14.8557 72.6796 13.8455 72.4193 12.9617C72.1591 12.0749 71.8275 11.3613 71.4244 10.8151C70.9269 10.1074 70.3222 9.75211 69.613 9.75211C68.8068 9.75211 67.9776 10.2161 67.1255 11.1411C66.2734 12.069 65.4672 13.3904 64.7095 15.1082C64.9238 16.9347 64.9468 18.9785 64.781 21.2425L64.5335 21.2014C64.6508 20.0297 64.6993 18.9051 64.6764 17.8274C64.6534 16.7497 64.5692 15.7572 64.4289 14.841C64.286 13.9278 64.0921 13.1173 63.8421 12.4096C63.5946 11.7019 63.291 11.1293 62.9364 10.6918C62.4389 10.0663 61.8598 9.75211 61.1965 9.75211C60.4847 9.75211 59.7576 10.1192 59.0126 10.8562C58.2651 11.5933 57.5559 12.5946 56.8798 13.8602C56.2063 15.1288 55.6016 16.6205 55.0684 18.3383C54.5352 20.0562 54.127 21.8826 53.8438 23.8178L53.8387 23.8237Z" fill="white"/>
<path d="M79.5424 38.0949C77.8611 38.0949 76.4452 37.8629 75.2971 37.3989C74.1491 36.935 73.2306 36.2273 72.5444 35.2729C72.0239 34.5359 71.6387 33.7049 71.3912 32.7799C71.1437 31.8549 71.0009 30.88 70.9651 29.8581C70.9294 28.8362 70.9575 27.7996 71.0544 26.7513C71.1488 25.703 71.2662 24.7016 71.4091 23.7473C71.6693 22.1117 72.0469 20.4496 72.5444 18.7582C73.0419 17.0698 73.7281 15.534 74.6058 14.1597C75.4808 12.7825 76.5702 11.6608 77.8739 10.7857C79.175 9.91361 80.7619 9.47607 82.6345 9.47607C83.7239 9.47607 84.6959 9.66694 85.548 10.0487C86.4001 10.4304 87.0864 10.9766 87.6094 11.6843C88.4615 12.8559 88.7575 14.2331 88.4972 15.813C88.3773 16.5207 88.1605 17.2049 87.8416 17.8567C87.5201 18.5116 87.1017 19.1106 86.5813 19.6568C86.6986 19.7948 86.8109 19.9152 86.918 20.0239C87.0252 20.1325 87.1374 20.2558 87.2548 20.3909C87.9666 21.4275 88.237 22.5727 88.0712 23.8266C87.8569 25.2155 87.1247 26.443 85.8695 27.506C86.0582 27.6704 86.2241 27.8613 86.367 28.0786C87.1961 29.1974 87.5022 30.4777 87.2905 31.9224C87.1476 32.7681 86.8415 33.5639 86.367 34.3156C85.8924 35.0644 85.3056 35.7193 84.6092 36.2772C83.9101 36.8351 83.1218 37.2785 82.2467 37.6074C81.3691 37.9334 80.471 38.0978 79.5475 38.0978L79.5424 38.0949ZM71.654 23.8236C71.2279 26.6309 71.0978 28.936 71.2636 30.7331C71.4295 32.5332 71.9142 33.9897 72.7204 35.1085C74.047 36.9085 76.3074 37.8071 79.5067 37.8071C80.4302 37.8071 81.3181 37.6515 82.1727 37.3373C83.0248 37.0231 83.7877 36.6002 84.4637 36.0687C85.1398 35.5372 85.7062 34.9117 86.1705 34.1894C86.6323 33.467 86.9231 32.6976 87.0405 31.8784C87.2522 30.5158 86.969 29.3031 86.1884 28.2401C85.6679 27.5324 84.9918 26.9862 84.1627 26.6045C83.3335 26.2227 82.41 26.0319 81.392 26.0319C80.6114 26.0319 79.8358 26.1493 79.0653 26.3784C78.2948 26.6104 77.5779 26.9569 76.9172 27.4208L76.7743 27.1742C77.4606 26.7102 78.2004 26.3549 78.9939 26.1112C79.7873 25.8674 80.5859 25.7441 81.392 25.7441C82.1982 25.7441 83.007 25.8792 83.7545 26.1523C84.4995 26.4254 85.1449 26.8071 85.6909 27.2975C86.8976 26.2903 87.6094 25.1039 87.8237 23.7414C88.0125 22.5433 87.765 21.4921 87.0762 20.5935C86.5787 19.9123 85.9103 19.3808 85.0684 18.999C84.229 18.6173 83.3106 18.4264 82.3156 18.4264C81.0833 18.4264 79.948 18.6848 78.9046 19.2016L78.7974 18.955C79.9327 18.4088 81.1063 18.1386 82.313 18.1386C83.9229 18.1386 85.2852 18.5879 86.3976 19.4865C87.441 18.3677 88.0661 17.1138 88.2804 15.7249C88.4947 14.2273 88.2089 12.944 87.4283 11.881C86.9308 11.1734 86.2751 10.6419 85.4562 10.2865C84.6398 9.93123 83.6984 9.75504 82.6319 9.75504C80.8078 9.75504 79.2567 10.1838 77.9785 11.0441C76.7003 11.9016 75.6339 13.0145 74.7818 14.377C73.9297 15.7396 73.2587 17.2548 72.774 18.9168C72.2892 20.5789 71.9142 22.2145 71.654 23.8236Z" fill="white"/>
</g>
<defs>
<clipPath id="clip0_324_2">
<rect width="91" height="44" fill="white"/>
</clipPath>
</defs>
</svg>
