<svg width="44" height="44" viewBox="0 0 44 44" fill="none" xmlns="http://www.w3.org/2000/svg">
<g clip-path="url(#clip0_137_46)">
<path d="M22 0C9.8444 0 0 9.8444 0 22C0 34.1556 9.8444 44 22 44C34.1556 44 44 34.1556 44 22C44 9.8444 34.1447 0 22 0ZM32.1169 31.7899C31.6809 32.4549 30.9068 32.6729 30.2418 32.226C25.0743 29.0317 18.5877 28.3776 10.8801 30.1328C10.106 30.3508 9.45193 29.8057 9.2339 29.1407C9.01586 28.3667 9.56095 27.7126 10.226 27.4945C18.5877 25.6194 25.8484 26.3935 31.561 29.9148C32.335 30.2418 32.444 31.1249 32.106 31.7899H32.1169ZM34.7552 25.7393C34.2101 26.5134 33.218 26.8404 32.444 26.2844C26.5025 22.6541 17.4866 21.553 10.553 23.7552C9.66997 23.9732 8.6779 23.5372 8.45986 22.6541C8.24182 21.7711 8.6779 20.779 9.56095 20.561C17.5847 18.1407 27.4945 19.3508 34.3082 23.5263C34.9623 23.8533 35.3003 24.9544 34.7443 25.7284L34.7552 25.7393ZM34.9732 19.5798C27.9306 15.4044 16.1675 14.9574 9.45193 17.0505C8.35084 17.3776 7.24975 16.7235 6.9227 15.7314C6.59564 14.6303 7.24975 13.5292 8.24182 13.2022C16.0476 10.891 28.9227 11.3271 37.0555 16.1675C38.0476 16.7126 38.3746 18.0426 37.8295 19.0238C37.2844 19.7978 35.9544 20.1249 34.9732 19.5689V19.5798Z" fill="white"/>
</g>
<defs>
<clipPath id="clip0_137_46">
<rect width="44" height="44" fill="white"/>
</clipPath>
</defs>
</svg>
