<svg width="54" height="44" viewBox="0 0 54 44" fill="none" xmlns="http://www.w3.org/2000/svg">
<g clip-path="url(#clip0_137_50)">
<path d="M53.6791 5.26779C51.9773 6.03024 50.0382 6.50157 48.1829 6.80655C49.0617 6.65406 50.3172 5.08758 50.8334 4.4499C51.6146 3.47951 52.2563 2.3705 52.6329 1.17832C52.6748 1.08128 52.7027 0.970378 52.619 0.901065C52.5074 0.859477 52.4237 0.873339 52.326 0.92879C50.2754 2.02394 48.141 2.81411 45.8812 3.38248C45.6998 3.42406 45.5603 3.38248 45.4348 3.27157C45.2534 3.06364 45.0721 2.8557 44.8768 2.70321C43.9282 1.89917 42.9098 1.26149 41.752 0.804026C40.2454 0.19407 38.5854 -0.0693198 36.9532 0.0415813C35.363 0.13862 33.8145 0.582224 32.4056 1.31694C30.9966 2.05166 29.7412 3.06364 28.7368 4.29741C27.7045 5.57277 26.9372 7.06994 26.5466 8.66414C26.17 10.2029 26.1979 11.7139 26.435 13.2665C26.4629 13.5299 26.435 13.5576 26.2118 13.5299C17.3537 12.213 10.0021 9.06616 4.04546 2.31505C3.78042 2.02394 3.64092 2.02394 3.43167 2.34278C0.823042 6.22432 2.09248 12.4764 5.3428 15.54C5.77525 15.9559 6.22165 16.3579 6.70989 16.7322C6.52854 16.7738 4.36631 16.5381 2.42728 15.54C2.16223 15.3737 2.03668 15.4707 2.00878 15.7618C1.98088 16.1777 2.00878 16.5658 2.07853 17.0233C2.58073 20.9603 5.32885 24.6062 9.08137 26.034C9.52777 26.2142 10.016 26.3806 10.5043 26.4638C9.65332 26.6578 8.76053 26.7826 6.30535 26.5885C5.99845 26.5331 5.88685 26.6856 5.99845 26.9767C7.83983 31.9811 11.8295 33.4644 14.8148 34.31C15.2193 34.3793 15.6099 34.3793 16.0145 34.4764C15.9866 34.518 15.9726 34.518 15.9447 34.5457C14.9543 36.0428 11.5226 37.1657 9.93232 37.7202C7.03074 38.7322 3.86412 39.1897 0.795142 38.8847C0.306896 38.8154 0.195297 38.8154 0.0697478 38.8847C-0.069751 38.9679 0.0557979 39.0788 0.209247 39.2174C0.836991 39.6333 1.46474 39.9937 2.10643 40.3403C4.05941 41.3661 6.0961 42.184 8.21648 42.7662C19.195 45.7744 31.5686 43.5702 39.813 35.419C46.2857 29.0283 48.5595 20.2117 48.5595 11.3812C48.5595 11.0346 48.9641 10.8406 49.2152 10.6604C50.9031 9.39886 52.3539 7.90169 53.6094 6.21045C53.8884 5.83616 54 5.50346 54 5.36483V5.32324C54 5.18462 53.9023 5.22621 53.6791 5.32324V5.26779Z" fill="white"/>
</g>
<defs>
<clipPath id="clip0_137_50">
<rect width="54" height="44" fill="white"/>
</clipPath>
</defs>
</svg>
